<svg width="1280" height="760" viewBox="0 0 1280 760" fill="none" xmlns="http://www.w3.org/2000/svg">
  <rect width="1280" height="760" fill="#F7F8FA"/>
  <rect x="24" y="24" width="1232" height="712" rx="16" fill="#FFFFFF" stroke="#D9DEE7"/>
  <rect x="24" y="24" width="250" height="712" rx="16" fill="#18202B"/>

  <text x="52" y="72" fill="#FFFFFF" font-family="Arial, Microsoft YaHei, sans-serif" font-size="22" font-weight="700">ReVolt</text>
  <text x="52" y="102" fill="#AFC0D4" font-family="Arial, Microsoft YaHei, sans-serif" font-size="13">二次利用电池模拟器</text>
  <text x="52" y="154" fill="#FFFFFF" font-family="Arial, Microsoft YaHei, sans-serif" font-size="13" font-weight="700">用户场景 / Use case</text>
  <rect x="52" y="170" width="176" height="34" rx="6" fill="#273243"/>
  <text x="66" y="192" fill="#FFFFFF" font-family="Arial, Microsoft YaHei, sans-serif" font-size="13">低收入家庭</text>
  <text x="52" y="246" fill="#FFFFFF" font-family="Arial, Microsoft YaHei, sans-serif" font-size="13" font-weight="700">电池参数 / Battery</text>
  <text x="52" y="278" fill="#AFC0D4" font-family="Arial, Microsoft YaHei, sans-serif" font-size="12">容量 / Capacity</text>
  <rect x="52" y="290" width="176" height="8" rx="4" fill="#3B4658"/>
  <rect x="52" y="290" width="98" height="8" rx="4" fill="#4DB6AC"/>
  <text x="52" y="326" fill="#AFC0D4" font-family="Arial, Microsoft YaHei, sans-serif" font-size="12">储备 SOC</text>
  <rect x="52" y="338" width="176" height="8" rx="4" fill="#3B4658"/>
  <rect x="52" y="338" width="55" height="8" rx="4" fill="#4DB6AC"/>
  <text x="52" y="386" fill="#FFFFFF" font-family="Arial, Microsoft YaHei, sans-serif" font-size="13" font-weight="700">电价 / Tariff</text>
  <rect x="52" y="406" width="176" height="68" rx="8" fill="#273243"/>
  <text x="68" y="430" fill="#AFC0D4" font-family="Arial, Microsoft YaHei, sans-serif" font-size="12">谷时</text>
  <text x="166" y="430" fill="#FFFFFF" font-family="Arial, Microsoft YaHei, sans-serif" font-size="12">$0.16</text>
  <text x="68" y="454" fill="#AFC0D4" font-family="Arial, Microsoft YaHei, sans-serif" font-size="12">峰时</text>
  <text x="166" y="454" fill="#FFFFFF" font-family="Arial, Microsoft YaHei, sans-serif" font-size="12">$0.44</text>

  <text x="304" y="64" fill="#18202B" font-family="Arial, Microsoft YaHei, sans-serif" font-size="26" font-weight="700">ReVolt 二次利用 EV 电池储能模拟器</text>
  <text x="306" y="96" fill="#607086" font-family="Arial, Microsoft YaHei, sans-serif" font-size="14">Bilingual dashboard for bill savings, arbitrage, carbon impact, and backup value.</text>

  <g>
    <rect x="304" y="134" width="142" height="92" rx="10" fill="#F2F6F9" stroke="#D9DEE7"/>
    <text x="320" y="164" fill="#607086" font-family="Arial, Microsoft YaHei, sans-serif" font-size="13">节省电费</text>
    <text x="320" y="198" fill="#18202B" font-family="Arial, Microsoft YaHei, sans-serif" font-size="28" font-weight="700">$2</text>
  </g>
  <g>
    <rect x="462" y="134" width="142" height="92" rx="10" fill="#F2F6F9" stroke="#D9DEE7"/>
    <text x="478" y="164" fill="#607086" font-family="Arial, Microsoft YaHei, sans-serif" font-size="13">年化节省</text>
    <text x="478" y="198" fill="#18202B" font-family="Arial, Microsoft YaHei, sans-serif" font-size="28" font-weight="700">$112</text>
  </g>
  <g>
    <rect x="620" y="134" width="142" height="92" rx="10" fill="#F2F6F9" stroke="#D9DEE7"/>
    <text x="636" y="164" fill="#607086" font-family="Arial, Microsoft YaHei, sans-serif" font-size="13">回本周期</text>
    <text x="636" y="198" fill="#18202B" font-family="Arial, Microsoft YaHei, sans-serif" font-size="28" font-weight="700">9.1y</text>
  </g>
  <g>
    <rect x="778" y="134" width="142" height="92" rx="10" fill="#F2F6F9" stroke="#D9DEE7"/>
    <text x="794" y="164" fill="#607086" font-family="Arial, Microsoft YaHei, sans-serif" font-size="13">套利价值</text>
    <text x="794" y="198" fill="#18202B" font-family="Arial, Microsoft YaHei, sans-serif" font-size="28" font-weight="700">$2</text>
  </g>
  <g>
    <rect x="936" y="134" width="142" height="92" rx="10" fill="#F2F6F9" stroke="#D9DEE7"/>
    <text x="952" y="164" fill="#607086" font-family="Arial, Microsoft YaHei, sans-serif" font-size="13">碳减排</text>
    <text x="952" y="198" fill="#18202B" font-family="Arial, Microsoft YaHei, sans-serif" font-size="28" font-weight="700">2.3kg</text>
  </g>
  <g>
    <rect x="1094" y="134" width="128" height="92" rx="10" fill="#F2F6F9" stroke="#D9DEE7"/>
    <text x="1110" y="164" fill="#607086" font-family="Arial, Microsoft YaHei, sans-serif" font-size="13">备电</text>
    <text x="1110" y="198" fill="#18202B" font-family="Arial, Microsoft YaHei, sans-serif" font-size="28" font-weight="700">0.8h</text>
  </g>

  <rect x="304" y="260" width="560" height="310" rx="12" fill="#FFFFFF" stroke="#D9DEE7"/>
  <text x="328" y="296" fill="#18202B" font-family="Arial, Microsoft YaHei, sans-serif" font-size="18" font-weight="700">每日账单对比 / Daily bill comparison</text>
  <line x1="340" y1="520" x2="824" y2="520" stroke="#CBD3DF"/>
  <line x1="340" y1="330" x2="340" y2="520" stroke="#CBD3DF"/>
  <rect x="380" y="396" width="32" height="124" rx="4" fill="#456990"/>
  <rect x="418" y="410" width="32" height="110" rx="4" fill="#4DB6AC"/>
  <rect x="494" y="382" width="32" height="138" rx="4" fill="#456990"/>
  <rect x="532" y="405" width="32" height="115" rx="4" fill="#4DB6AC"/>
  <rect x="608" y="365" width="32" height="155" rx="4" fill="#456990"/>
  <rect x="646" y="396" width="32" height="124" rx="4" fill="#4DB6AC"/>
  <rect x="722" y="372" width="32" height="148" rx="4" fill="#456990"/>
  <rect x="760" y="402" width="32" height="118" rx="4" fill="#4DB6AC"/>
  <circle cx="344" cy="608" r="6" fill="#456990"/>
  <text x="358" y="613" fill="#607086" font-family="Arial, Microsoft YaHei, sans-serif" font-size="13">基准账单</text>
  <circle cx="470" cy="608" r="6" fill="#4DB6AC"/>
  <text x="484" y="613" fill="#607086" font-family="Arial, Microsoft YaHei, sans-serif" font-size="13">使用电池后</text>

  <rect x="894" y="260" width="328" height="310" rx="12" fill="#FFFFFF" stroke="#D9DEE7"/>
  <text x="918" y="296" fill="#18202B" font-family="Arial, Microsoft YaHei, sans-serif" font-size="18" font-weight="700">技术摘要 / Technical summary</text>
  <text x="918" y="340" fill="#607086" font-family="Arial, Microsoft YaHei, sans-serif" font-size="14">高峰转移</text>
  <text x="1116" y="340" fill="#18202B" font-family="Arial, Microsoft YaHei, sans-serif" font-size="14" font-weight="700">51.5 kWh</text>
  <line x1="918" y1="360" x2="1198" y2="360" stroke="#E5EAF0"/>
  <text x="918" y="394" fill="#607086" font-family="Arial, Microsoft YaHei, sans-serif" font-size="14">峰值下降</text>
  <text x="1134" y="394" fill="#18202B" font-family="Arial, Microsoft YaHei, sans-serif" font-size="14" font-weight="700">22.8%</text>
  <line x1="918" y1="414" x2="1198" y2="414" stroke="#E5EAF0"/>
  <text x="918" y="448" fill="#607086" font-family="Arial, Microsoft YaHei, sans-serif" font-size="14">年化循环</text>
  <text x="1138" y="448" fill="#18202B" font-family="Arial, Microsoft YaHei, sans-serif" font-size="14" font-weight="700">561</text>
  <line x1="918" y1="468" x2="1198" y2="468" stroke="#E5EAF0"/>
  <text x="918" y="502" fill="#607086" font-family="Arial, Microsoft YaHei, sans-serif" font-size="14">寿命估计</text>
  <text x="1134" y="502" fill="#18202B" font-family="Arial, Microsoft YaHei, sans-serif" font-size="14" font-weight="700">4.3y</text>

  <rect x="304" y="598" width="918" height="96" rx="12" fill="#FFFFFF" stroke="#D9DEE7"/>
  <text x="328" y="636" fill="#18202B" font-family="Arial, Microsoft YaHei, sans-serif" font-size="18" font-weight="700">负荷、充电与 SOC / Load, charging, and state of charge</text>
  <polyline points="330,670 390,654 450,662 510,622 570,640 630,610 690,626 750,614 810,650 870,632 930,642 990,604 1050,620 1110,652 1170,636" fill="none" stroke="#456990" stroke-width="4"/>
  <polyline points="330,684 390,674 450,680 510,674 570,660 630,654 690,646 750,640 810,632 870,626 930,620 990,614 1050,608 1110,602 1170,596" fill="none" stroke="#4DB6AC" stroke-width="4"/>
</svg>
